<svg version="1.0" xmlns="http://www.w3.org/2000/svg" width="266.667" height="266.667" viewBox="0 0 200 200"><path d="M100 65.5V106l-3.9-1.9c-9.7-5-23.7-4.9-33.8.1-5.3 2.6-13.5 10.4-15.9 14.9-6.5 12.7-5.8 27.5 2 39.2 4.2 6.2 8.7 9.9 16.4 13.5 4.6 2.1 7.2 2.6 13.7 2.6 4.4 0 9.8-.6 12.1-1.2 9.6-2.8 19.2-12.1 23.6-22.9 2.3-5.7 2.3-6.2 2.3-49.1 0-28.4.3-43.1 1-42.8.6.2 10.3 2.9 21.7 6 11.4 3.1 21.3 5.9 22 6.1 1 .4 1.3-2.5 1.1-14.2l-.2-14.7-28.9-7.7c-15.9-4.2-29.9-8-31.1-8.4l-2.1-.6v40.6zm9.4-35.9c3.4.8 6.8 1.9 7.7 2.4.8.4 4.2 1.3 7.5 2 3.2.6 12.3 2.9 20.2 5.1 7.9 2.1 14.6 3.9 14.9 3.9.3 0 .3.9 0 2s-.2 2 .1 2c.6 0 .6 8.2.2 19.7 0 1.1-5.9-.2-18.5-4-11.7-3.6-24.4-6.4-25.6-5.6-1 .6-1.3 10.4-1.4 44.1l-.1 43.4-3.1 6.5c-3.4 7.2-9 14.2-10.6 13.2-.6-.3-.7-.1-.3.6.5.7-1.6 2.2-6 4.3-5.9 2.8-7.8 3.1-15.4 3.1-7.1 0-9.5-.4-14.3-2.6-3.1-1.4-5.7-3.1-5.7-3.6 0-.6-.6-1.1-1.4-1.1-1.9 0-7.7-7.4-10.7-13.5-2-4.2-2.4-6.5-2.4-14 0-9.1.8-11.8 5.2-18.9 2.8-4.6 6.5-8.6 8-8.6.7 0 1.3-.5 1.3-1.1 0-.5 2.6-2.2 5.8-3.7 8.1-3.7 20-3.7 28.7 0 4.3 1.9 6.4 2.3 7.3 1.6.9-.8 1.2-10 1.2-39.9 0-21.4.3-38.9.7-38.9.4 0 3.4.7 6.7 1.6z"/></svg>